<svg id="visual" viewBox="0 0 900 600" width="900" height="600" xmlns="http://www.w3.org/2000/svg" xmlns:xlink="http://www.w3.org/1999/xlink" version="1.1"><rect x="0" y="0" width="900" height="600" fill="#1e8690"></rect><defs><linearGradient id="grad1_0" x1="33.3%" y1="100%" x2="100%" y2="0%"><stop offset="20%" stop-color="#9fffd1" stop-opacity="1"></stop><stop offset="80%" stop-color="#9fffd1" stop-opacity="1"></stop></linearGradient></defs><defs><linearGradient id="grad1_1" x1="33.3%" y1="100%" x2="100%" y2="0%"><stop offset="20%" stop-color="#9fffd1" stop-opacity="1"></stop><stop offset="80%" stop-color="#1e8690" stop-opacity="1"></stop></linearGradient></defs><defs><linearGradient id="grad2_0" x1="0%" y1="100%" x2="66.7%" y2="0%"><stop offset="20%" stop-color="#9fffd1" stop-opacity="1"></stop><stop offset="80%" stop-color="#9fffd1" stop-opacity="1"></stop></linearGradient></defs><defs><linearGradient id="grad2_1" x1="0%" y1="100%" x2="66.7%" y2="0%"><stop offset="20%" stop-color="#1e8690" stop-opacity="1"></stop><stop offset="80%" stop-color="#9fffd1" stop-opacity="1"></stop></linearGradient></defs><g transform="translate(900, 600)"><path d="M-486.7 0C-478.3 -68.4 -469.9 -136.8 -431.5 -178.7C-393 -220.6 -324.6 -236.1 -283.5 -283.5C-242.5 -331 -229 -410.5 -186.3 -449.7C-143.6 -488.9 -71.8 -487.8 0 -486.7L0 0Z" fill="#56c2b5"></path><path d="M-243.4 0C-239.2 -34.2 -234.9 -68.4 -215.7 -89.4C-196.5 -110.3 -162.3 -118 -141.8 -141.8C-121.3 -165.5 -114.5 -205.2 -93.1 -224.8C-71.8 -244.5 -35.9 -243.9 0 -243.4L0 0Z" fill="#9fffd1"></path></g><g transform="translate(0, 0)"><path d="M486.7 0C472.8 64 458.9 128.1 427.8 177.2C396.7 226.3 348.4 260.5 308.3 308.3C268.2 356.1 236.3 417.7 186.3 449.7C136.3 481.7 68.1 484.2 0 486.7L0 0Z" fill="#56c2b5"></path><path d="M243.4 0C236.4 32 229.4 64 213.9 88.6C198.3 113.1 174.2 130.2 154.1 154.1C134.1 178.1 118.1 208.8 93.1 224.8C68.1 240.9 34.1 242.1 0 243.4L0 0Z" fill="#9fffd1"></path></g></svg>